
<svg width="127" height="50" viewBox="0 0 127 50" fill="none" xmlns="http://www.w3.org/2000/svg">
  <path d="M20.8 12.5C18.9 10.6 16.4 9.5 13.7 9.5C8.3 9.5 4 13.8 4 19.2C4 24.6 8.3 28.9 13.7 28.9C16.4 28.9 18.9 27.8 20.8 25.9L26.7 31.8C23.2 35.3 18.7 37.4 13.7 37.4C3.8 37.4 -4 29.6 -4 19.7C-4 9.8 3.8 2 13.7 2C18.7 2 23.2 4.1 26.7 7.6L20.8 12.5Z" fill="#5CB85C"/>
  <path d="M42.5 12.5C40.6 10.6 38.1 9.5 35.4 9.5C30 9.5 25.7 13.8 25.7 19.2C25.7 24.6 30 28.9 35.4 28.9C38.1 28.9 40.6 27.8 42.5 25.9L48.4 31.8C44.9 35.3 40.4 37.4 35.4 37.4C25.5 37.4 17.7 29.6 17.7 19.7C17.7 9.8 25.5 2 35.4 2C40.4 2 44.9 4.1 48.4 7.6L42.5 12.5Z" fill="#5CB85C"/>
</svg>
